<?xml version="1.0" standalone="no"?>
<!DOCTYPE svg PUBLIC "-//W3C//DTD SVG 20010904//EN"
 "http://www.w3.org/TR/2001/REC-SVG-20010904/DTD/svg10.dtd">
<svg version="1.0" xmlns="http://www.w3.org/2000/svg"
 width="700.000000pt" height="700.000000pt" viewBox="0 0 700.000000 700.000000"
 preserveAspectRatio="xMidYMid meet">
<metadata>
Created by potrace 1.14, written by Peter Selinger 2001-2017
</metadata>
<g transform="translate(0.000000,700.000000) scale(0.100000,-0.100000)"
fill="#000000" stroke="none">
<path d="M3305 6993 c-277 -15 -618 -79 -897 -169 -370 -120 -782 -344 -1103
-600 -141 -113 -416 -388 -529 -529 -258 -322 -480 -732 -601 -1107 -119 -367
-169 -692 -169 -1093 1 -276 17 -440 69 -700 108 -533 353 -1055 701 -1490
114 -142 388 -417 529 -529 773 -616 1734 -877 2708 -735 605 87 1201 348
1682 735 629 507 1070 1231 1230 2019 53 262 69 423 69 705 0 282 -16 443 -69
705 -291 1433 -1467 2545 -2912 2754 -236 35 -479 46 -708 34z m486 -818 c617
-72 1223 -373 1664 -826 274 -282 447 -548 588 -904 208 -527 240 -1018 101
-1562 -157 -619 -583 -1180 -1201 -1583 -315 -206 -741 -361 -1133 -411 -123
-16 -486 -16 -615 0 -161 20 -380 67 -520 112 -580 185 -1112 590 -1455 1107
-313 471 -459 1129 -389 1757 63 571 313 1091 734 1524 152 156 261 247 440
366 312 209 744 367 1130 414 50 6 101 13 115 15 71 10 428 4 541 -9z"/>
<path d="M3950 4849 c-197 -21 -436 -86 -610 -166 -319 -148 -640 -423 -857
-734 -178 -255 -327 -583 -413 -910 -53 -202 -112 -460 -106 -466 2 -3 7 6 11
19 17 54 130 267 203 381 186 291 377 521 582 702 355 314 708 504 1090 586
89 20 136 23 305 24 274 0 391 -27 536 -126 139 -94 219 -195 241 -302 l13
-61 195 -127 c275 -180 350 -233 419 -296 70 -63 140 -156 176 -234 24 -53 55
-178 55 -222 0 -19 -4 -17 -30 14 -18 23 -81 66 -167 114 -76 43 -187 109
-248 145 -147 90 -438 248 -485 265 -37 13 -39 12 -66 -17 -16 -16 -92 -74
-170 -128 -78 -55 -163 -124 -191 -154 -65 -70 -156 -223 -196 -328 -29 -76
-31 -93 -32 -203 0 -117 1 -122 34 -190 113 -229 356 -289 622 -155 88 45 257
162 329 228 36 33 81 85 100 116 19 31 38 56 41 56 25 0 38 -314 19 -440 -18
-114 -82 -278 -142 -362 -11 -16 -17 -28 -13 -28 17 0 345 324 397 392 166
218 299 496 344 718 21 107 14 301 -16 443 -70 332 -253 672 -485 901 -414
411 -933 601 -1485 545z"/>
<path d="M4393 4064 c-154 -57 -190 -244 -71 -378 105 -121 335 -90 408 55 24
45 27 143 7 192 -21 48 -64 95 -111 119 -54 28 -173 34 -233 12z m169 -151
c13 -12 18 -30 18 -67 0 -59 -6 -71 -41 -84 -33 -13 -74 -5 -96 20 -25 28 -24
99 1 127 24 26 91 29 118 4z"/>
</g>
</svg>
