<?xml version="1.0" standalone="no"?>
<!DOCTYPE svg PUBLIC "-//W3C//DTD SVG 20010904//EN"
 "http://www.w3.org/TR/2001/REC-SVG-20010904/DTD/svg10.dtd">
<svg version="1.0" xmlns="http://www.w3.org/2000/svg"
 width="2048.000000pt" height="2048.000000pt" viewBox="0 0 2048.000000 2048.000000"
 preserveAspectRatio="xMidYMid meet">
<metadata>
Created by potrace 1.14, written by Peter Selinger 2001-2017
</metadata>
<g transform="translate(0.000000,2048.000000) scale(0.100000,-0.100000)"
fill="#000000" stroke="none">
<path d="M0 10240 l0 -10240 10240 0 10240 0 0 10240 0 10240 -10240 0 -10240
0 0 -10240z m10625 8500 c55 -6 165 -14 245 -20 361 -24 809 -92 1145 -173 33
-8 85 -20 115 -27 30 -7 64 -16 75 -21 11 -4 36 -11 55 -14 19 -4 55 -13 80
-20 25 -7 72 -21 105 -30 33 -9 71 -20 85 -25 14 -5 59 -18 100 -30 41 -12 84
-25 95 -30 11 -5 74 -25 140 -46 66 -21 127 -41 135 -45 8 -4 62 -24 120 -44
106 -37 116 -41 180 -69 19 -8 63 -26 97 -40 35 -15 89 -38 120 -52 32 -14 67
-29 78 -34 183 -81 597 -290 686 -346 22 -14 50 -29 62 -35 24 -10 24 -10 222
-129 153 -92 221 -136 413 -267 79 -54 151 -102 160 -108 19 -12 5 -2 187
-137 181 -134 431 -333 531 -423 6 -5 65 -57 130 -115 307 -271 712 -709 989
-1068 6 -7 15 -18 20 -25 20 -23 132 -173 196 -262 346 -481 573 -860 762
-1275 13 -30 39 -85 56 -122 17 -37 31 -69 31 -72 0 -3 11 -29 24 -58 14 -29
41 -93 61 -143 20 -49 42 -103 49 -120 8 -16 22 -52 31 -80 10 -27 22 -54 27
-60 4 -5 8 -16 8 -25 1 -8 9 -33 20 -55 11 -22 19 -47 20 -56 0 -9 3 -18 6
-22 11 -10 112 -306 153 -447 13 -41 27 -86 32 -100 4 -14 13 -43 18 -65 6
-22 17 -67 26 -100 17 -62 34 -128 60 -237 82 -337 148 -755 174 -1093 30
-385 33 -474 28 -725 -12 -543 -68 -1007 -196 -1635 -6 -27 -15 -66 -21 -85
-5 -19 -22 -82 -36 -140 -49 -199 -114 -423 -144 -495 -4 -11 -25 -67 -45
-125 -21 -58 -44 -119 -51 -137 -8 -17 -14 -36 -14 -42 0 -6 -4 -19 -10 -29
-5 -9 -26 -60 -45 -112 -20 -52 -40 -104 -45 -115 -5 -11 -18 -42 -30 -70 -12
-27 -25 -59 -30 -70 -5 -11 -19 -45 -32 -75 -72 -176 -289 -580 -463 -861 -5
-9 -18 -31 -29 -50 -24 -43 -136 -211 -214 -322 -34 -48 -90 -126 -123 -175
-119 -168 -319 -421 -478 -602 -153 -175 -518 -534 -770 -760 -46 -41 -89 -80
-95 -85 -118 -112 -529 -447 -693 -565 -26 -19 -50 -37 -53 -40 -18 -18 -424
-289 -547 -365 -93 -58 -198 -120 -208 -124 -5 -2 -39 -21 -75 -42 -36 -21
-90 -52 -120 -68 -76 -42 -484 -244 -545 -271 -27 -11 -59 -25 -70 -30 -11 -5
-42 -18 -70 -30 -27 -12 -59 -25 -70 -30 -47 -21 -115 -49 -195 -80 -47 -18
-99 -39 -117 -46 -17 -8 -36 -14 -42 -14 -6 0 -19 -4 -29 -9 -27 -14 -172 -64
-352 -121 -91 -28 -176 -55 -190 -60 -14 -5 -43 -14 -65 -19 -22 -5 -65 -17
-95 -26 -30 -9 -80 -23 -110 -30 -30 -7 -82 -21 -115 -30 -86 -23 -262 -63
-400 -91 -281 -57 -561 -94 -855 -113 -85 -6 -218 -15 -295 -21 -178 -13 -575
-13 -759 0 -77 6 -208 15 -291 20 -432 30 -832 91 -1327 205 -35 8 -85 19
-113 25 -27 6 -59 15 -70 20 -11 5 -40 13 -65 19 -72 16 -134 32 -155 41 -11
5 -36 12 -55 16 -19 3 -41 10 -50 15 -8 4 -49 18 -90 29 -41 12 -84 25 -95 30
-11 5 -69 25 -130 45 -60 20 -124 43 -142 51 -17 8 -37 14 -45 14 -8 0 -18 4
-24 8 -5 5 -31 17 -59 27 -27 9 -63 23 -80 30 -16 8 -84 36 -150 63 -250 104
-639 296 -826 408 -31 19 -59 34 -61 34 -7 0 -278 162 -315 188 -15 11 -93 63
-173 115 -80 53 -172 115 -205 138 -74 52 -216 155 -230 166 -5 5 -50 40 -100
78 -108 83 -227 177 -276 219 -19 17 -57 49 -85 71 -27 22 -71 61 -99 86 -27
25 -72 65 -100 90 -27 24 -135 127 -239 229 -430 422 -822 895 -1156 1395
-100 150 -220 342 -220 351 0 2 -14 26 -30 54 -99 168 -232 440 -315 643 -14
34 -30 71 -35 82 -5 11 -15 36 -24 55 -8 19 -23 55 -34 80 -11 25 -47 122 -82
215 -34 94 -65 177 -70 185 -4 9 -11 31 -15 50 -4 19 -11 41 -16 50 -4 8 -24
69 -44 135 -20 66 -39 127 -42 135 -12 33 -78 297 -109 430 -94 408 -159 827
-211 1360 -21 220 -30 1010 -13 1235 25 343 46 545 74 720 40 245 47 285 60
355 8 41 21 107 29 145 8 39 20 95 26 125 7 30 16 71 21 90 9 33 47 183 75
300 7 30 21 79 29 108 41 135 48 160 58 197 6 22 14 45 18 50 4 6 11 26 15 45
4 19 11 41 15 50 5 8 25 62 46 120 20 58 40 110 44 115 4 6 15 33 25 60 23 65
49 126 109 258 20 44 36 80 36 82 0 14 229 483 283 580 19 33 47 85 64 115 44
81 135 234 142 240 3 3 12 15 19 28 26 47 37 66 45 76 4 6 49 74 100 151 104
157 302 425 458 619 57 71 122 152 145 180 145 181 684 734 889 913 298 259
690 550 1065 789 216 138 440 263 695 388 183 89 391 186 401 186 3 0 26 9 52
21 26 11 61 26 77 34 17 7 89 34 160 60 72 26 139 51 150 55 11 4 49 18 85 30
36 12 74 26 85 30 45 18 126 43 285 90 41 12 84 25 95 30 11 4 40 13 65 20 25
6 70 18 100 26 30 8 82 22 115 30 33 8 87 22 120 30 346 87 892 174 1280 204
77 6 172 15 210 19 103 12 874 13 990 1z"/>
<path d="M11835 14549 c-402 -35 -855 -107 -1090 -175 -27 -7 -111 -30 -185
-50 -585 -157 -1126 -409 -1690 -788 -314 -211 -508 -363 -820 -640 -104 -93
-493 -489 -580 -592 -347 -407 -621 -797 -852 -1209 -25 -44 -58 -102 -73
-130 -48 -87 -249 -486 -302 -600 -118 -254 -307 -738 -354 -905 -6 -19 -21
-64 -34 -100 -40 -112 -82 -258 -140 -485 -31 -121 -63 -245 -71 -275 -8 -30
-21 -80 -28 -110 -7 -30 -28 -109 -45 -175 -18 -66 -38 -149 -46 -185 -8 -36
-35 -155 -60 -265 -25 -110 -56 -254 -70 -320 -14 -66 -32 -151 -41 -188 -9
-37 -14 -70 -11 -73 3 -3 8 8 12 26 7 33 56 148 128 300 24 52 54 118 67 145
38 85 88 186 139 280 61 113 128 234 144 259 7 11 37 61 68 110 31 50 94 151
140 224 46 73 89 140 94 149 12 22 77 116 172 253 40 58 84 121 97 140 101
146 329 458 394 540 150 188 175 218 336 395 157 172 685 696 791 785 50 41
124 104 165 140 76 67 206 173 246 200 12 8 69 51 127 95 373 283 690 493
1052 697 100 56 461 236 535 267 30 12 64 26 75 31 86 38 116 50 127 50 8 0
18 4 24 9 16 15 358 131 549 186 33 9 74 21 90 26 49 15 235 60 305 74 388 78
592 103 925 112 324 8 674 -15 920 -62 159 -31 315 -69 380 -95 11 -4 47 -18
80 -30 148 -57 316 -151 501 -282 311 -220 510 -454 634 -743 18 -41 50 -176
50 -209 0 -60 12 -97 43 -128 29 -29 124 -103 159 -123 9 -5 65 -43 123 -82
58 -40 108 -73 110 -73 3 0 51 -31 107 -68 120 -80 279 -183 306 -197 102 -57
652 -427 837 -563 231 -171 520 -454 613 -602 9 -14 19 -27 22 -30 12 -12 70
-99 70 -106 0 -4 6 -15 14 -23 28 -33 134 -249 164 -336 35 -102 51 -165 88
-350 15 -71 30 -148 35 -170 11 -53 11 -115 0 -115 -5 0 -36 37 -69 83 -33 45
-77 96 -97 112 -43 35 -177 115 -505 302 -129 73 -244 139 -255 145 -24 14
-724 434 -745 448 -8 5 -69 39 -135 76 -66 37 -133 75 -150 84 -16 9 -66 36
-110 60 -44 23 -84 46 -90 50 -5 4 -41 24 -80 45 -38 20 -95 51 -125 68 -211
118 -470 249 -550 277 -36 13 -69 27 -74 32 -6 4 -22 8 -36 8 -20 0 -48 -22
-116 -92 -53 -55 -130 -121 -189 -161 -55 -37 -154 -106 -220 -152 -66 -47
-145 -102 -175 -123 -30 -20 -107 -73 -170 -117 -286 -197 -380 -292 -588
-593 -193 -280 -380 -653 -454 -907 -95 -327 -93 -712 4 -980 15 -40 47 -116
57 -135 120 -224 249 -373 426 -492 69 -47 231 -128 255 -128 9 0 20 -4 25 -9
16 -13 134 -40 231 -51 365 -41 693 41 1134 284 58 32 106 62 108 67 2 5 8 9
14 9 11 0 96 53 243 149 39 25 75 49 80 53 306 224 392 294 536 438 156 156
187 196 304 393 32 54 63 96 69 94 6 -2 12 -17 14 -33 2 -16 12 -60 22 -99 60
-223 65 -271 65 -590 -1 -495 -34 -760 -133 -1075 -38 -119 -52 -158 -69 -190
-7 -14 -13 -28 -13 -32 0 -10 -66 -153 -122 -263 -28 -55 -89 -158 -135 -228
-47 -71 -83 -131 -80 -134 7 -7 58 39 257 232 91 88 194 185 229 215 35 30 69
60 75 65 6 6 47 42 91 80 256 224 509 496 651 700 19 28 53 75 75 105 50 67
259 379 259 385 0 3 36 66 81 141 162 271 304 564 405 829 19 50 38 99 43 110
5 11 19 49 31 85 12 36 26 74 30 85 45 114 108 359 145 565 43 248 32 757 -25
1065 -5 28 -16 93 -25 145 -17 94 -46 232 -65 300 -80 295 -182 612 -210 655
-4 6 -15 33 -25 60 -9 28 -30 78 -46 113 -16 35 -29 65 -29 67 0 2 -21 47 -46
102 -270 582 -611 1099 -990 1502 -110 117 -377 367 -514 482 -102 85 -363
284 -475 362 -22 15 -76 53 -120 84 -233 164 -637 385 -935 512 -69 29 -133
57 -142 62 -10 5 -23 9 -29 9 -6 0 -25 7 -42 15 -37 16 -303 105 -392 129 -33
9 -73 21 -90 26 -32 10 -166 41 -280 66 -38 9 -88 19 -110 24 -131 30 -396 66
-635 85 -199 16 -645 18 -815 4z"/>
<path d="M13210 12110 c-258 -33 -486 -177 -585 -369 -75 -146 -86 -374 -28
-561 42 -132 159 -311 256 -391 91 -74 219 -124 362 -138 288 -30 531 41 706
206 142 134 207 275 216 467 11 234 -70 434 -238 590 -84 78 -239 159 -344
181 -89 19 -261 26 -345 15z m239 -466 c40 -8 114 -73 136 -121 25 -53 25
-249 0 -310 -21 -52 -71 -98 -122 -112 -61 -17 -156 -13 -205 8 -48 20 -138
114 -138 143 0 9 -4 20 -10 23 -5 3 -10 46 -10 95 0 79 3 95 30 148 30 58 90
113 135 125 30 7 148 8 184 1z"/>
</g>
</svg>
