<svg xmlns="http://www.w3.org/2000/svg" xmlns:xlink="http://www.w3.org/1999/xlink" width="259" zoomAndPan="magnify" viewBox="0 0 194.25 30.000001" height="40" preserveAspectRatio="xMidYMid meet" version="1.0"><defs><g/><clipPath id="cfa69542db"><path d="M 46 12 L 61 12 L 61 29.03125 L 46 29.03125 Z M 46 12 " clip-rule="nonzero"/></clipPath><clipPath id="fff5c8d961"><path d="M 170 12 L 184 12 L 184 29.03125 L 170 29.03125 Z M 170 12 " clip-rule="nonzero"/></clipPath></defs><g fill="#00aab9" fill-opacity="1"><g transform="translate(8.60876, 26.129049)"><g><path d="M 4.765625 -21.890625 L 4.765625 -13 L 15.96875 -13 L 15.96875 -21.890625 L 18.40625 -21.890625 L 18.40625 0 L 15.96875 0 L 15.96875 -10.734375 L 4.765625 -10.734375 L 4.765625 0 L 2.328125 0 L 2.328125 -21.890625 Z M 4.765625 -21.890625 "/></g></g></g><g fill="#00aab9" fill-opacity="1"><g transform="translate(29.329739, 26.129049)"><g><path d="M 12.34375 -11.703125 L 12.34375 -13.640625 L 14.65625 -13.640625 L 14.65625 0 L 12.34375 0 L 12.34375 -1.890625 L 12.28125 -1.890625 C 11.082031 -0.378906 9.515625 0.375 7.578125 0.375 C 5.679688 0.375 4.117188 -0.316406 2.890625 -1.703125 C 1.660156 -3.097656 1.046875 -4.796875 1.046875 -6.796875 C 1.046875 -8.878906 1.664062 -10.601562 2.90625 -11.96875 C 4.144531 -13.332031 5.710938 -14.015625 7.609375 -14.015625 C 8.554688 -14.015625 9.429688 -13.8125 10.234375 -13.40625 C 11.035156 -13 11.71875 -12.429688 12.28125 -11.703125 Z M 7.875 -11.875 C 6.632812 -11.875 5.582031 -11.398438 4.71875 -10.453125 C 3.851562 -9.503906 3.421875 -8.34375 3.421875 -6.96875 C 3.421875 -5.5 3.84375 -4.265625 4.6875 -3.265625 C 5.53125 -2.265625 6.597656 -1.765625 7.890625 -1.765625 C 9.265625 -1.765625 10.367188 -2.238281 11.203125 -3.1875 C 12.035156 -4.132812 12.453125 -5.382812 12.453125 -6.9375 C 12.453125 -8.351562 12.023438 -9.53125 11.171875 -10.46875 C 10.328125 -11.40625 9.226562 -11.875 7.875 -11.875 Z M 7.875 -11.875 "/></g></g></g><g clip-path="url(#cfa69542db)"><g fill="#00aab9" fill-opacity="1"><g transform="translate(46.074841, 26.129049)"><g><path d="M 2.640625 -13.640625 L 7.46875 -3.859375 L 11.875 -13.640625 L 14.515625 -13.640625 L 4.4375 7.671875 L 1.796875 7.671875 L 6.21875 -1.28125 L -0.0625 -13.640625 Z M 2.640625 -13.640625 "/></g></g></g></g><g fill="#00aab9" fill-opacity="1"><g transform="translate(60.527289, 26.129049)"><g><path d="M 12.34375 -11.703125 L 12.34375 -13.640625 L 14.65625 -13.640625 L 14.65625 0 L 12.34375 0 L 12.34375 -1.890625 L 12.28125 -1.890625 C 11.082031 -0.378906 9.515625 0.375 7.578125 0.375 C 5.679688 0.375 4.117188 -0.316406 2.890625 -1.703125 C 1.660156 -3.097656 1.046875 -4.796875 1.046875 -6.796875 C 1.046875 -8.878906 1.664062 -10.601562 2.90625 -11.96875 C 4.144531 -13.332031 5.710938 -14.015625 7.609375 -14.015625 C 8.554688 -14.015625 9.429688 -13.8125 10.234375 -13.40625 C 11.035156 -13 11.71875 -12.429688 12.28125 -11.703125 Z M 7.875 -11.875 C 6.632812 -11.875 5.582031 -11.398438 4.71875 -10.453125 C 3.851562 -9.503906 3.421875 -8.34375 3.421875 -6.96875 C 3.421875 -5.5 3.84375 -4.265625 4.6875 -3.265625 C 5.53125 -2.265625 6.597656 -1.765625 7.890625 -1.765625 C 9.265625 -1.765625 10.367188 -2.238281 11.203125 -3.1875 C 12.035156 -4.132812 12.453125 -5.382812 12.453125 -6.9375 C 12.453125 -8.351562 12.023438 -9.53125 11.171875 -10.46875 C 10.328125 -11.40625 9.226562 -11.875 7.875 -11.875 Z M 7.875 -11.875 "/></g></g></g><g fill="#00aab9" fill-opacity="1"><g transform="translate(77.272391, 26.129049)"><g><path d="M 4.40625 -23.953125 L 4.40625 -11.703125 L 4.46875 -11.703125 C 5.03125 -12.429688 5.71875 -13 6.53125 -13.40625 C 7.34375 -13.8125 8.210938 -14.015625 9.140625 -14.015625 C 10.472656 -14.015625 11.644531 -13.675781 12.65625 -13 C 13.664062 -12.320312 14.425781 -11.4375 14.9375 -10.34375 C 15.445312 -9.25 15.703125 -8.078125 15.703125 -6.828125 C 15.703125 -5.585938 15.445312 -4.414062 14.9375 -3.3125 C 14.425781 -2.207031 13.660156 -1.316406 12.640625 -0.640625 C 11.628906 0.0351562 10.472656 0.375 9.171875 0.375 C 8.222656 0.375 7.34375 0.179688 6.53125 -0.203125 C 5.71875 -0.585938 5.03125 -1.148438 4.46875 -1.890625 L 4.40625 -1.890625 L 4.40625 0 L 2.09375 0 L 2.09375 -23.953125 Z M 8.703125 -11.875 C 7.460938 -11.875 6.414062 -11.390625 5.5625 -10.421875 C 4.71875 -9.453125 4.296875 -8.300781 4.296875 -6.96875 C 4.296875 -5.476562 4.710938 -4.238281 5.546875 -3.25 C 6.378906 -2.257812 7.453125 -1.765625 8.765625 -1.765625 C 10.140625 -1.765625 11.242188 -2.242188 12.078125 -3.203125 C 12.910156 -4.160156 13.328125 -5.40625 13.328125 -6.9375 C 13.328125 -8.382812 12.894531 -9.566406 12.03125 -10.484375 C 11.164062 -11.410156 10.054688 -11.875 8.703125 -11.875 Z M 8.703125 -11.875 "/></g></g></g><g fill="#00aab9" fill-opacity="1"><g transform="translate(94.017494, 26.129049)"><g><path d="M 4.359375 -13.640625 L 4.359375 -5.828125 C 4.359375 -4.398438 4.578125 -3.363281 5.015625 -2.71875 C 5.460938 -2.082031 6.269531 -1.765625 7.4375 -1.765625 C 8.570312 -1.765625 9.367188 -2.078125 9.828125 -2.703125 C 10.285156 -3.335938 10.515625 -4.34375 10.515625 -5.71875 L 10.515625 -13.640625 L 12.828125 -13.640625 L 12.828125 -5.625 C 12.828125 -3.65625 12.375 -2.160156 11.46875 -1.140625 C 10.570312 -0.128906 9.226562 0.375 7.4375 0.375 C 5.632812 0.375 4.28125 -0.132812 3.375 -1.15625 C 2.476562 -2.1875 2.03125 -3.675781 2.03125 -5.625 L 2.03125 -13.640625 Z M 4.359375 -13.640625 "/></g></g></g><g fill="#00aab9" fill-opacity="1"><g transform="translate(108.876237, 26.129049)"><g><path d="M 7.71875 -10.484375 C 7.507812 -10.921875 7.238281 -11.257812 6.90625 -11.5 C 6.582031 -11.75 6.234375 -11.875 5.859375 -11.875 C 5.429688 -11.875 5.046875 -11.722656 4.703125 -11.421875 C 4.359375 -11.117188 4.1875 -10.765625 4.1875 -10.359375 C 4.1875 -9.566406 4.941406 -8.894531 6.453125 -8.34375 C 7.972656 -7.789062 9.03125 -7.1875 9.625 -6.53125 C 10.21875 -5.875 10.515625 -5.050781 10.515625 -4.0625 C 10.515625 -3.3125 10.335938 -2.601562 9.984375 -1.9375 C 9.640625 -1.28125 9.101562 -0.726562 8.375 -0.28125 C 7.644531 0.15625 6.816406 0.375 5.890625 0.375 C 4.765625 0.375 3.773438 0.078125 2.921875 -0.515625 C 2.078125 -1.117188 1.460938 -1.972656 1.078125 -3.078125 L 3.140625 -3.953125 C 3.484375 -3.140625 3.875 -2.570312 4.3125 -2.25 C 4.75 -1.925781 5.285156 -1.765625 5.921875 -1.765625 C 6.578125 -1.765625 7.109375 -1.960938 7.515625 -2.359375 C 7.921875 -2.765625 8.125 -3.265625 8.125 -3.859375 C 8.125 -4.359375 7.941406 -4.796875 7.578125 -5.171875 C 7.210938 -5.554688 6.539062 -5.941406 5.5625 -6.328125 C 4.582031 -6.710938 3.820312 -7.097656 3.28125 -7.484375 C 2.425781 -8.109375 1.988281 -9 1.96875 -10.15625 C 1.96875 -11.238281 2.351562 -12.148438 3.125 -12.890625 C 3.90625 -13.640625 4.875 -14.015625 6.03125 -14.015625 C 6.769531 -14.015625 7.476562 -13.78125 8.15625 -13.3125 C 8.832031 -12.851562 9.335938 -12.25 9.671875 -11.5 Z M 7.71875 -10.484375 "/></g></g></g><g fill="#00aab9" fill-opacity="1"><g transform="translate(120.455605, 26.129049)"><g><path d="M 12.34375 -11.703125 L 12.34375 -13.640625 L 14.65625 -13.640625 L 14.65625 0 L 12.34375 0 L 12.34375 -1.890625 L 12.28125 -1.890625 C 11.082031 -0.378906 9.515625 0.375 7.578125 0.375 C 5.679688 0.375 4.117188 -0.316406 2.890625 -1.703125 C 1.660156 -3.097656 1.046875 -4.796875 1.046875 -6.796875 C 1.046875 -8.878906 1.664062 -10.601562 2.90625 -11.96875 C 4.144531 -13.332031 5.710938 -14.015625 7.609375 -14.015625 C 8.554688 -14.015625 9.429688 -13.8125 10.234375 -13.40625 C 11.035156 -13 11.71875 -12.429688 12.28125 -11.703125 Z M 7.875 -11.875 C 6.632812 -11.875 5.582031 -11.398438 4.71875 -10.453125 C 3.851562 -9.503906 3.421875 -8.34375 3.421875 -6.96875 C 3.421875 -5.5 3.84375 -4.265625 4.6875 -3.265625 C 5.53125 -2.265625 6.597656 -1.765625 7.890625 -1.765625 C 9.265625 -1.765625 10.367188 -2.238281 11.203125 -3.1875 C 12.035156 -4.132812 12.453125 -5.382812 12.453125 -6.9375 C 12.453125 -8.351562 12.023438 -9.53125 11.171875 -10.46875 C 10.328125 -11.40625 9.226562 -11.875 7.875 -11.875 Z M 7.875 -11.875 "/></g></g></g><g fill="#00aab9" fill-opacity="1"><g transform="translate(137.200707, 26.129049)"><g><path d="M 13.359375 -21.890625 L 13.359375 -19.625 L 8.015625 -19.625 L 8.015625 0 L 5.578125 0 L 5.578125 -19.625 L 0.296875 -19.625 L 0.296875 -21.890625 Z M 13.359375 -21.890625 "/></g></g></g><g fill="#00aab9" fill-opacity="1"><g transform="translate(150.840566, 26.129049)"><g><path d="M 8.484375 -11.265625 C 8.242188 -11.441406 8.019531 -11.585938 7.8125 -11.703125 C 7.613281 -11.816406 7.367188 -11.875 7.078125 -11.875 C 6.210938 -11.875 5.550781 -11.484375 5.09375 -10.703125 C 4.632812 -9.929688 4.40625 -8.6875 4.40625 -6.96875 L 4.40625 0 L 2.09375 0 L 2.09375 -13.640625 L 4.40625 -13.640625 L 4.40625 -12.171875 L 4.46875 -12.171875 C 5.03125 -12.921875 5.53125 -13.414062 5.96875 -13.65625 C 6.40625 -13.894531 6.910156 -14.015625 7.484375 -14.015625 C 7.835938 -14.015625 8.191406 -13.957031 8.546875 -13.84375 C 8.910156 -13.726562 9.253906 -13.578125 9.578125 -13.390625 Z M 8.484375 -11.265625 "/></g></g></g><g fill="#00aab9" fill-opacity="1"><g transform="translate(160.562591, 26.129049)"><g><path d="M 4.96875 -13.640625 L 4.96875 0 L 2.640625 0 L 2.640625 -13.640625 Z M 2.140625 -18.84375 C 2.140625 -19.269531 2.3125 -19.640625 2.65625 -19.953125 C 3 -20.273438 3.378906 -20.4375 3.796875 -20.4375 C 4.242188 -20.4375 4.628906 -20.273438 4.953125 -19.953125 C 5.285156 -19.640625 5.453125 -19.269531 5.453125 -18.84375 C 5.453125 -18.34375 5.285156 -17.929688 4.953125 -17.609375 C 4.628906 -17.285156 4.242188 -17.125 3.796875 -17.125 C 3.359375 -17.125 2.972656 -17.28125 2.640625 -17.59375 C 2.304688 -17.90625 2.140625 -18.320312 2.140625 -18.84375 Z M 2.140625 -18.84375 "/></g></g></g><g clip-path="url(#fff5c8d961)"><g fill="#00aab9" fill-opacity="1"><g transform="translate(168.166093, 26.129049)"><g><path d="M 4.46875 -1.921875 L 4.40625 -1.921875 L 4.40625 7.671875 L 2.09375 7.671875 L 2.09375 -13.640625 L 4.40625 -13.640625 L 4.40625 -11.703125 L 4.46875 -11.703125 C 5.03125 -12.453125 5.71875 -13.023438 6.53125 -13.421875 C 7.34375 -13.816406 8.222656 -14.015625 9.171875 -14.015625 C 10.390625 -14.015625 11.5 -13.695312 12.5 -13.0625 C 13.507812 -12.425781 14.296875 -11.550781 14.859375 -10.4375 C 15.421875 -9.320312 15.703125 -8.109375 15.703125 -6.796875 C 15.703125 -5.472656 15.429688 -4.253906 14.890625 -3.140625 C 14.347656 -2.035156 13.566406 -1.171875 12.546875 -0.546875 C 11.535156 0.0664062 10.398438 0.375 9.140625 0.375 C 8.210938 0.375 7.34375 0.179688 6.53125 -0.203125 C 5.71875 -0.585938 5.03125 -1.160156 4.46875 -1.921875 Z M 8.703125 -11.875 C 7.953125 -11.875 7.238281 -11.671875 6.5625 -11.265625 C 5.882812 -10.859375 5.335938 -10.265625 4.921875 -9.484375 C 4.503906 -8.710938 4.296875 -7.875 4.296875 -6.96875 C 4.296875 -5.519531 4.707031 -4.289062 5.53125 -3.28125 C 6.351562 -2.269531 7.429688 -1.765625 8.765625 -1.765625 C 9.671875 -1.765625 10.472656 -1.984375 11.171875 -2.421875 C 11.867188 -2.859375 12.398438 -3.472656 12.765625 -4.265625 C 13.140625 -5.054688 13.328125 -5.945312 13.328125 -6.9375 C 13.328125 -8.382812 12.898438 -9.566406 12.046875 -10.484375 C 11.191406 -11.410156 10.078125 -11.875 8.703125 -11.875 Z M 8.703125 -11.875 "/></g></g></g></g></svg>