<svg xmlns="http://www.w3.org/2000/svg" xmlns:xlink="http://www.w3.org/1999/xlink" width="196" zoomAndPan="magnify" viewBox="2 0 146 30.000001" height="40" preserveAspectRatio="xMidYMid meet" version="1.0">
<defs>
<clipPath id="1e06cd930e"><path d="M 2.417969 5 L 17 5 L 17 25 L 2.417969 25 Z M 2.417969 5 " clip-rule="nonzero"/></clipPath>
<clipPath id="7ce098aab8"><path d="M 31.941406 12.140625 L 44.496094 12.140625 L 44.496094 26.554688 L 31.941406 26.554688 Z M 31.941406 12.140625 " clip-rule="nonzero"/></clipPath>
<clipPath id="88ca555fdc"><path d="M 135.726562 12.140625 L 147.441406 12.140625 L 147.441406 26.554688 L 135.726562 26.554688 Z M 135.726562 12.140625 " clip-rule="nonzero"/></clipPath>
</defs><g clip-path="url(#1e06cd930e)"><path fill="#00aab9" d="M 4.636719 5.570312 L 4.636719 13.09375 L 14.011719 13.09375 L 14.011719 5.570312 L 16.050781 5.570312 L 16.050781 24.097656 L 14.011719 24.097656 L 14.011719 15.011719 L 4.636719 15.011719 L 4.636719 24.097656 L 2.59375 24.097656 L 2.59375 5.570312 Z M 4.636719 5.570312 " fill-opacity="1" fill-rule="nonzero"/></g><path fill="#00aab9" d="M 28.320312 14.191406 L 28.320312 12.554688 L 30.253906 12.554688 L 30.253906 24.097656 L 28.320312 24.097656 L 28.320312 22.496094 L 28.269531 22.496094 C 27.265625 23.777344 25.953125 24.414062 24.332031 24.414062 C 22.742188 24.414062 21.433594 23.828125 20.410156 22.65625 C 19.378906 21.476562 18.867188 20.039062 18.867188 18.34375 C 18.867188 16.582031 19.382812 15.125 20.421875 13.96875 C 21.457031 12.816406 22.769531 12.234375 24.359375 12.234375 C 25.148438 12.234375 25.882812 12.40625 26.554688 12.75 C 27.226562 13.09375 27.796875 13.578125 28.269531 14.191406 Z M 24.582031 14.046875 C 23.539062 14.046875 22.660156 14.449219 21.9375 15.25 C 21.210938 16.054688 20.851562 17.035156 20.851562 18.199219 C 20.851562 19.441406 21.207031 20.488281 21.914062 21.332031 C 22.617188 22.179688 23.511719 22.601562 24.59375 22.601562 C 25.742188 22.601562 26.667969 22.203125 27.367188 21.398438 C 28.0625 20.601562 28.410156 19.542969 28.410156 18.226562 C 28.410156 17.03125 28.050781 16.03125 27.339844 15.238281 C 26.632812 14.445312 25.710938 14.046875 24.582031 14.046875 Z M 24.582031 14.046875 " fill-opacity="1" fill-rule="nonzero"/><g clip-path="url(#7ce098aab8)"><path fill="#00aab9" d="M 34.214844 12.554688 L 38.253906 20.832031 L 41.941406 12.554688 L 44.152344 12.554688 L 35.71875 30.589844 L 33.507812 30.589844 L 37.207031 23.011719 L 31.953125 12.554688 Z M 34.214844 12.554688 " fill-opacity="1" fill-rule="nonzero"/></g><path fill="#00aab9" d="M 54.429688 14.191406 L 54.429688 12.554688 L 56.367188 12.554688 L 56.367188 24.097656 L 54.429688 24.097656 L 54.429688 22.496094 L 54.378906 22.496094 C 53.375 23.777344 52.0625 24.414062 50.441406 24.414062 C 48.855469 24.414062 47.546875 23.828125 46.519531 22.65625 C 45.488281 21.476562 44.976562 20.039062 44.976562 18.34375 C 44.976562 16.582031 45.492188 15.125 46.53125 13.96875 C 47.570312 12.816406 48.878906 12.234375 50.46875 12.234375 C 51.261719 12.234375 51.992188 12.40625 52.664062 12.75 C 53.335938 13.09375 53.90625 13.578125 54.378906 14.191406 Z M 50.691406 14.046875 C 49.652344 14.046875 48.773438 14.449219 48.050781 15.25 C 47.324219 16.054688 46.964844 17.035156 46.964844 18.199219 C 46.964844 19.441406 47.316406 20.488281 48.023438 21.332031 C 48.730469 22.179688 49.621094 22.601562 50.703125 22.601562 C 51.855469 22.601562 52.777344 22.203125 53.476562 21.398438 C 54.171875 20.601562 54.523438 19.542969 54.523438 18.226562 C 54.523438 17.03125 54.164062 16.03125 53.449219 15.238281 C 52.746094 14.445312 51.820312 14.046875 50.691406 14.046875 Z M 50.691406 14.046875 " fill-opacity="1" fill-rule="nonzero"/><path fill="#00aab9" d="M 61.804688 3.824219 L 61.804688 14.191406 L 61.855469 14.191406 C 62.324219 13.578125 62.902344 13.09375 63.582031 12.75 C 64.261719 12.40625 64.988281 12.234375 65.765625 12.234375 C 66.878906 12.234375 67.859375 12.523438 68.707031 13.09375 C 69.550781 13.671875 70.1875 14.417969 70.617188 15.34375 C 71.042969 16.269531 71.257812 17.261719 71.257812 18.320312 C 71.257812 19.371094 71.042969 20.363281 70.617188 21.292969 C 70.1875 22.230469 69.546875 22.984375 68.695312 23.554688 C 67.847656 24.128906 66.878906 24.414062 65.792969 24.414062 C 64.996094 24.414062 64.261719 24.25 63.582031 23.925781 C 62.902344 23.601562 62.324219 23.125 61.855469 22.496094 L 61.804688 22.496094 L 61.804688 24.097656 L 59.867188 24.097656 L 59.867188 3.824219 Z M 65.398438 14.046875 C 64.359375 14.046875 63.484375 14.457031 62.769531 15.277344 C 62.0625 16.097656 61.710938 17.074219 61.710938 18.199219 C 61.710938 19.460938 62.058594 20.511719 62.757812 21.347656 C 63.453125 22.1875 64.351562 22.601562 65.453125 22.601562 C 66.601562 22.601562 67.523438 22.199219 68.222656 21.386719 C 68.921875 20.578125 69.269531 19.523438 69.269531 18.226562 C 69.269531 17.003906 68.90625 16 68.183594 15.222656 C 67.457031 14.441406 66.53125 14.046875 65.398438 14.046875 Z M 65.398438 14.046875 " fill-opacity="1" fill-rule="nonzero"/><path fill="#00aab9" d="M 75.777344 12.554688 L 75.777344 19.164062 C 75.777344 20.375 75.960938 21.25 76.328125 21.796875 C 76.699219 22.335938 77.378906 22.601562 78.355469 22.601562 C 79.304688 22.601562 79.96875 22.339844 80.355469 21.808594 C 80.738281 21.273438 80.929688 20.421875 80.929688 19.257812 L 80.929688 12.554688 L 82.867188 12.554688 L 82.867188 19.335938 C 82.867188 21.003906 82.488281 22.269531 81.730469 23.132812 C 80.976562 23.988281 79.851562 24.414062 78.355469 24.414062 C 76.84375 24.414062 75.714844 23.984375 74.953125 23.117188 C 74.203125 22.246094 73.828125 20.988281 73.828125 19.335938 L 73.828125 12.554688 Z M 75.777344 12.554688 " fill-opacity="1" fill-rule="nonzero"/><path fill="#00aab9" d="M 91.027344 15.222656 C 90.851562 14.855469 90.625 14.570312 90.347656 14.363281 C 90.074219 14.152344 89.785156 14.046875 89.46875 14.046875 C 89.109375 14.046875 88.789062 14.175781 88.503906 14.429688 C 88.214844 14.6875 88.070312 14.988281 88.070312 15.332031 C 88.070312 16 88.703125 16.570312 89.96875 17.035156 C 91.238281 17.503906 92.125 18.015625 92.621094 18.570312 C 93.117188 19.125 93.367188 19.824219 93.367188 20.660156 C 93.367188 21.292969 93.21875 21.894531 92.921875 22.457031 C 92.636719 23.011719 92.183594 23.484375 91.574219 23.859375 C 90.964844 24.230469 90.269531 24.414062 89.496094 24.414062 C 88.554688 24.414062 87.722656 24.164062 87.011719 23.660156 C 86.304688 23.152344 85.789062 22.429688 85.46875 21.492188 L 87.195312 20.75 C 87.484375 21.441406 87.808594 21.921875 88.175781 22.191406 C 88.542969 22.46875 88.988281 22.601562 89.523438 22.601562 C 90.070312 22.601562 90.515625 22.4375 90.855469 22.101562 C 91.195312 21.757812 91.367188 21.332031 91.367188 20.832031 C 91.367188 20.40625 91.214844 20.039062 90.910156 19.71875 C 90.601562 19.398438 90.039062 19.070312 89.222656 18.742188 C 88.402344 18.417969 87.765625 18.089844 87.3125 17.761719 C 86.597656 17.234375 86.230469 16.480469 86.214844 15.503906 C 86.214844 14.585938 86.535156 13.816406 87.183594 13.1875 C 87.835938 12.554688 88.648438 12.234375 89.613281 12.234375 C 90.230469 12.234375 90.824219 12.433594 91.394531 12.832031 C 91.957031 13.222656 92.378906 13.730469 92.660156 14.363281 Z M 91.027344 15.222656 " fill-opacity="1" fill-rule="nonzero"/><path fill="#00aab9" d="M 104.589844 14.191406 L 104.589844 12.554688 L 106.523438 12.554688 L 106.523438 24.097656 L 104.589844 24.097656 L 104.589844 22.496094 L 104.539062 22.496094 C 103.535156 23.777344 102.222656 24.414062 100.601562 24.414062 C 99.011719 24.414062 97.703125 23.828125 96.679688 22.65625 C 95.648438 21.476562 95.132812 20.039062 95.132812 18.34375 C 95.132812 16.582031 95.652344 15.125 96.691406 13.96875 C 97.726562 12.816406 99.039062 12.234375 100.628906 12.234375 C 101.417969 12.234375 102.152344 12.40625 102.824219 12.75 C 103.496094 13.09375 104.066406 13.578125 104.539062 14.191406 Z M 100.847656 14.046875 C 99.808594 14.046875 98.929688 14.449219 98.207031 15.25 C 97.480469 16.054688 97.121094 17.035156 97.121094 18.199219 C 97.121094 19.441406 97.476562 20.488281 98.183594 21.332031 C 98.886719 22.179688 99.78125 22.601562 100.863281 22.601562 C 102.011719 22.601562 102.933594 22.203125 103.636719 21.398438 C 104.332031 20.601562 104.679688 19.542969 104.679688 18.226562 C 104.679688 17.03125 104.320312 16.03125 103.609375 15.238281 C 102.902344 14.445312 101.980469 14.046875 100.847656 14.046875 Z M 100.847656 14.046875 " fill-opacity="1" fill-rule="nonzero"/><path fill="#00aab9" d="M 119.453125 5.570312 L 119.453125 7.488281 L 114.980469 7.488281 L 114.980469 24.097656 L 112.941406 24.097656 L 112.941406 7.488281 L 108.519531 7.488281 L 108.519531 5.570312 Z M 119.453125 5.570312 " fill-opacity="1" fill-rule="nonzero"/><path fill="#00aab9" d="M 126.789062 14.5625 C 126.585938 14.414062 126.402344 14.292969 126.226562 14.191406 C 126.0625 14.097656 125.855469 14.046875 125.613281 14.046875 C 124.886719 14.046875 124.335938 14.378906 123.953125 15.039062 C 123.566406 15.695312 123.375 16.746094 123.375 18.199219 L 123.375 24.097656 L 121.441406 24.097656 L 121.441406 12.554688 L 123.375 12.554688 L 123.375 13.796875 L 123.429688 13.796875 C 123.898438 13.160156 124.316406 12.746094 124.683594 12.539062 C 125.050781 12.339844 125.472656 12.234375 125.953125 12.234375 C 126.246094 12.234375 126.542969 12.285156 126.84375 12.382812 C 127.144531 12.480469 127.433594 12.605469 127.707031 12.765625 Z M 126.789062 14.5625 " fill-opacity="1" fill-rule="nonzero"/><path fill="#00aab9" d="M 131.984375 12.554688 L 131.984375 24.097656 L 130.035156 24.097656 L 130.035156 12.554688 Z M 129.617188 8.148438 C 129.617188 7.789062 129.761719 7.476562 130.050781 7.210938 C 130.335938 6.941406 130.65625 6.800781 131.003906 6.800781 C 131.378906 6.800781 131.699219 6.941406 131.972656 7.210938 C 132.25 7.476562 132.390625 7.789062 132.390625 8.148438 C 132.390625 8.574219 132.25 8.921875 131.972656 9.195312 C 131.699219 9.46875 131.378906 9.605469 131.003906 9.605469 C 130.636719 9.605469 130.316406 9.472656 130.035156 9.207031 C 129.753906 8.945312 129.617188 8.59375 129.617188 8.148438 Z M 129.617188 8.148438 " fill-opacity="1" fill-rule="nonzero"/><g clip-path="url(#88ca555fdc)"><path fill="#00aab9" d="M 137.929688 22.472656 L 137.878906 22.472656 L 137.878906 30.589844 L 135.941406 30.589844 L 135.941406 12.554688 L 137.878906 12.554688 L 137.878906 14.191406 L 137.929688 14.191406 C 138.402344 13.558594 138.976562 13.074219 139.65625 12.738281 C 140.335938 12.40625 141.070312 12.234375 141.867188 12.234375 C 142.886719 12.234375 143.816406 12.507812 144.652344 13.042969 C 145.496094 13.582031 146.15625 14.320312 146.625 15.265625 C 147.097656 16.210938 147.332031 17.234375 147.332031 18.34375 C 147.332031 19.464844 147.105469 20.496094 146.652344 21.441406 C 146.199219 22.375 145.542969 23.105469 144.691406 23.632812 C 143.84375 24.152344 142.894531 24.414062 141.839844 24.414062 C 141.0625 24.414062 140.335938 24.25 139.65625 23.925781 C 138.976562 23.601562 138.402344 23.117188 137.929688 22.472656 Z M 141.472656 14.046875 C 140.847656 14.046875 140.25 14.21875 139.683594 14.5625 C 139.113281 14.90625 138.65625 15.410156 138.308594 16.070312 C 137.960938 16.726562 137.785156 17.433594 137.785156 18.199219 C 137.785156 19.425781 138.128906 20.46875 138.820312 21.320312 C 139.507812 22.175781 140.410156 22.601562 141.527344 22.601562 C 142.285156 22.601562 142.957031 22.417969 143.539062 22.046875 C 144.121094 21.675781 144.566406 21.160156 144.875 20.488281 C 145.1875 19.820312 145.34375 19.066406 145.34375 18.226562 C 145.34375 17.003906 144.984375 16 144.273438 15.222656 C 143.558594 14.441406 142.625 14.046875 141.472656 14.046875 Z M 141.472656 14.046875 " fill-opacity="1" fill-rule="nonzero"/></g></svg>